<svg xmlns="http://www.w3.org/2000/svg" viewBox="0 0 496 512"><!--! Font Awesome Pro 6.4.0 by @fontawesome - https://fontawesome.com License - https://fontawesome.com/license (Commercial License) Copyright 2023 Fonticons, Inc. --><path d="M248 8C111 8 0 119 0 256s111 248 248 248 248-111 248-248S385 8 248 8zM110.1 234.3l37.8-121.6h50.9l-58.4 153.2c-2.9 7.6-11.4 11.5-18.7 8.7-1.6-.6-3.1-1.5-4.4-2.6l-67.2-56.5 60-19.2zm85.8 179.6c-5.8 5.8-15.2 5.8-21 0l-26.6-26.6c-5.8-5.8-5.8-15.2 0-21l128.6-128.6c5.8-5.8 15.2-5.8 21 0l26.6 26.6c5.8 5.8 5.8 15.2 0 21L195.9 413.9zm190-179.6l-60 19.2-67.2 56.5c-1.3 1.1-2.8 2-4.4 2.6-7.3 2.8-15.8-1.1-18.7-8.7l-58.4-153.2h50.9l37.8 121.6 60-19.2z"/></svg>